<svg xmlns="http://www.w3.org/2000/svg" xmlns:xlink="http://www.w3.org/1999/xlink" viewBox="0 0 842.13 434.49"><defs><style>.cls-1{fill:none;}.cls-2{isolation:isolate;}.cls-3{clip-path:url(#clip-path);}.cls-4{fill:#fbc96e;}.cls-5{fill:#3d2847;}.cls-6{opacity:0.3;fill:url(#linear-gradient);}.cls-6,.cls-8{mix-blend-mode:multiply;}.cls-7{fill:#50345c;}.cls-8{opacity:0.19;fill:url(#linear-gradient-2);}.cls-9{fill:#006a76;}.cls-10{fill:#e8ddb5;}.cls-11{fill:#00878e;}.cls-12{fill:#db5654;}.cls-13{opacity:0.32;}.cls-14{fill:#004f5b;}.cls-15{fill:#fff0dd;}</style><clipPath id="clip-path" transform="translate(-39.81 -108.7)"><rect class="cls-1" width="900.72" height="496.97"/></clipPath><linearGradient id="linear-gradient" x1="182.19" y1="446.09" x2="169.34" y2="503.36" gradientUnits="userSpaceOnUse"><stop offset="0.01" stop-color="#bee3db" stop-opacity="0"/><stop offset="1" stop-color="#89b0ae"/></linearGradient><linearGradient id="linear-gradient-2" x1="49.16" y1="485.29" x2="110.82" y2="485.29" gradientUnits="userSpaceOnUse"><stop offset="0.01" stop-color="#666a86" stop-opacity="0"/><stop offset="1" stop-color="#666a86"/></linearGradient></defs><g class="cls-2"><g id="OBJECTS"><g class="cls-3"><ellipse class="cls-4" cx="364.6" cy="152.89" rx="103.4" ry="103.5"/><g id="Mountain"><path class="cls-5" d="M325.1,504.72c-1.27-.07-33.38-2-34.65-2H72.87c-2.9,0-13.38,0-20.69-.75A26.32,26.32,0,0,1,56,498.74c12.42-8.85,29.72-13.22,43.74-19,1.36-.56,2.76-1.13,4.19-1.62,5.26-1.88,10.78-3.06,15.83-1,4.14,1.69,7.21,5.31,11.18,7.34,8.58,4.35,18.91.36,27.41-4.17s17.75-9.75,27.16-7.7c7.92,1.73,14.39,8.46,22.48,8.8,7.11.31,13.37-4.37,18.94-8.84q20.9-16.69,41.78-33.43c6-4.79,12-14.35,30-6.3C311.66,452.33,408.51,509,325.1,504.72Z" transform="translate(-39.81 -108.7)"/><path class="cls-6" d="M69.32,488.68,41.09,500.35a2.07,2.07,0,0,0,.18,3.89l9.63,3A117.56,117.56,0,0,0,65.14,511c20.57,3.64,41.55-3.89,62.4-2.73,9.26.51,18.34,2.74,27.55,3.83,13.68,1.61,27.52.72,41.27-.18l100.47-6.57a2.1,2.1,0,0,0,1.9-1.69c.59-2.8,1.58-5.56,2.23-8.35a2.05,2.05,0,0,0-1.79-2.53C223.68,484.69,139.29,459.76,69.32,488.68Z" transform="translate(-39.81 -108.7)"/><path class="cls-7" d="M292.48,500.4a2,2,0,0,1-2,2.37H72.87c-2.9,0-13.38,0-20.69-.75L51,501.89a2.06,2.06,0,0,1-.73-3.86c16.09-8.57,34.1-20.41,50.93-29.81A184,184,0,0,1,124.27,457c10.37-4,21.68-4.47,32.79-3.32,2.93.28,5.86.69,8.75,1.18,4.38.76,9,1.62,13.23.54l.15,0a12.44,12.44,0,0,0,1.9-.63c8.13-3.49,10.13-13.76,13.82-21.78a41.89,41.89,0,0,1,24-21.75c.41-.17.82-.3,1.23-.43,8.88-2.76,19-.93,27.54-4.59,16.32-7,31.48-14.22,45.49-22.93,1.63-1,3.69-.15,3.45,1.77-2,16.13-7,28.19-7.65,44A357.07,357.07,0,0,0,292.48,500.4Z" transform="translate(-39.81 -108.7)"/><path class="cls-5" d="M218.88,411.18a22,22,0,0,1-1.84,5.63c-4.46,10.21-8.95,20.47-15.1,29.77s-14.1,17.62-24.05,22.61c-2,1-5.45,1.23-5.69-1a3.77,3.77,0,0,1,.65-2.07c1.89-3.52,4.05-7.07,6.19-10.7l.15,0a12.44,12.44,0,0,0,1.9-.63c8.13-3.49,10.13-13.76,13.82-21.78A41.89,41.89,0,0,1,218.88,411.18Z" transform="translate(-39.81 -108.7)"/><path class="cls-8" d="M110.23,488.34c-1.26,2.37-3.76,3.78-6.15,5a196.32,196.32,0,0,1-20.86,9.4H72.87c-2.9,0-13.38,0-20.69-.75L51,501.89a2.06,2.06,0,0,1-.73-3.86c16.09-8.57,34.1-20.41,50.93-29.81a8.81,8.81,0,0,1,4.35-.22c2.4.6,4.41,3.32,3.31,5.52-.7,1.38-2.27,2-3.52,3a4.46,4.46,0,0,0-1.38,1.66,2.11,2.11,0,0,0,.13,2.26c.88,1.15,2.69.78,4.07,1.19C110.72,482.37,111.48,486,110.23,488.34Z" transform="translate(-39.81 -108.7)"/><path class="cls-7" d="M882,491.21a13.24,13.24,0,0,1-13.41,13.51H309.23A13.36,13.36,0,0,1,296,492.84l-7.09-64.12-3.69-33.05a13.33,13.33,0,0,1,6.18-12.78L409,309.23a13.53,13.53,0,0,1,15.46.91l71.22,57.37a9.21,9.21,0,0,0,1.48,1A13.1,13.1,0,0,0,507.74,370l73.6-20.74a13.2,13.2,0,0,1,12,2.54,12.74,12.74,0,0,1,2.78,3l40.47,61.73c.24.33.48.67.76,1a13.45,13.45,0,0,0,10.16,5l67.28,1.34a10.83,10.83,0,0,1,2.11.24A13.6,13.6,0,0,1,724.2,428l48.94,51.05a13.39,13.39,0,0,0,10.44,4.12L867.72,478a13.29,13.29,0,0,1,6.52,1.25A12.91,12.91,0,0,1,882,491.21Z" transform="translate(-39.81 -108.7)"/><path class="cls-5" d="M418,307.36c-2,14-13.79,29.41-19.68,40.85-2.35,4.51-4.79,9.15-8.77,12.26s-10,4.27-14.08,1.3c-22.41,23.42-57.61,38.69-84.52,56.74-3,2-6.13,4-9.72,4.46-.47,0-7.16-.71-13.3-1.42a6.86,6.86,0,0,1-5.16-10.22l22.43-15.66a13.33,13.33,0,0,1,6.18-12.78L409,309.23A13.06,13.06,0,0,1,418,307.36Z" transform="translate(-39.81 -108.7)"/><path class="cls-5" d="M593.36,351.76a29,29,0,0,1-7.52,6.13c-5.89,3.4-12.69,5.79-17.14,11-3.54,4.16-5.12,9.67-8.48,14s-9.91,7.18-14.17,3.78c-1.68-1.34-2.64-3.4-4.36-4.69-2.87-2.11-7-1.53-10,.33s-5.31,4.6-7.9,7A40.7,40.7,0,0,1,491,400c2.78-10.63,4.51-20.83,6.23-31.46A13.1,13.1,0,0,0,507.74,370l73.6-20.74A13.2,13.2,0,0,1,593.36,351.76Z" transform="translate(-39.81 -108.7)"/><path class="cls-5" d="M716.92,424.12c-14.32,11.73-33,17.62-51,23.08-3.73,1.15-8.9,1.73-10.58-1.86-1.77-3.79,2.63-8.19,1.29-12.17-1.24-3.73-6.32-4.12-10.2-3.4s-8.47,1.58-11.16-1.29c-2.34-2.49-1.67-6.75.48-9.39a13.1,13.1,0,0,1,1.58-1.58,13.45,13.45,0,0,0,10.16,5l67.28,1.34A10.83,10.83,0,0,1,716.92,424.12Z" transform="translate(-39.81 -108.7)"/><path class="cls-5" d="M315.23,478.65a262.19,262.19,0,0,1,63.85-54.24c5.8-3.51,12-6.88,18.8-7.24s14.22,3.17,16.27,9.63c1.65,5.21-.07,11.92,4.05,15.51s10.75.77,15.46-2.3c9.28-6.06,18.63-12.55,29.42-15.1s23.57-.19,30.12,8.75c3.35,4.56,4.79,10.38,8.53,14.62,7,7.94,19.55,7.74,29.62,4.49s19.51-8.89,30-9.89c17.76-1.68,35.56,12.42,38,30.09-.83.23-3.7,2.4-4.56,2.4Z" transform="translate(-39.81 -108.7)"/></g><path class="cls-9" d="M287.18,363.29c-5.14,1.27-9.82,3.17-14.93,4.14a169,169,0,0,1,18.24,5.4,191.55,191.55,0,0,1,9.05,46.6q-9.63-3.19-19.26-6.33,9.06,6.48,17.52,13.73c.51.43,1.24,1.22,2.07,2.06,0,.23,0,.45,0,.67a204,204,0,0,1-6.42,51.6l-10.1-18.5c2,3.71,3.61,19.93,7.58,27.31-10.76,34.55-27.38,53.08-27.38,53.08s-19.76-16.83-30.94-51.76a178.72,178.72,0,0,1,17.27-25c-6.94,4.6-13.68,9.56-20.13,14.82a167.62,167.62,0,0,1-4.55-44.14q10.17-8.24,21-16c-6.9,2.88-13.77,5.78-20.67,8.66a297.58,297.58,0,0,1,4.26-35.91,225.54,225.54,0,0,1,17.32-17.39L232,382.56c10.08-45.5,27.49-72.17,27.49-72.17S275.35,331.4,287.18,363.29Z" transform="translate(-39.81 -108.7)"/><path class="cls-10" d="M263.56,543.19a.15.15,0,0,1-.15-.12c-5.87-42.45-4.49-220.52-4.48-222.32,0-.07.07-.12.15-.13a.13.13,0,0,1,.13.14c0,1.79-1.39,179.84,4.48,222.27a.14.14,0,0,1-.12.16Z" transform="translate(-39.81 -108.7)"/><path class="cls-9" d="M381.49,416.22c-4.8-2.23-9.64-3.69-14.22-6.13A167.73,167.73,0,0,1,378,425.7a191.35,191.35,0,0,1-22.36,41.91q-5.48-8.49-11-17,3,10.71,5,21.64c.12.66.19,1.73.3,2.9l-.42.53A205,205,0,0,1,312,511.82q1.92-10.36,3.82-20.72c-.77,4.15-9.76,17.77-11.34,26-30.17,20.13-54.79,24.14-54.79,24.14s-4.75-25.46,8.59-59.63a181.69,181.69,0,0,1,29.24-8.67c-8.3-.76-16.67-1.12-25-1.06a168.46,168.46,0,0,1,24.31-37.19q13.11,0,26.43.69c-7.19-2.09-14.36-4.13-21.55-6.21a300.12,300.12,0,0,1,26-25.27,227.4,227.4,0,0,1,24.44-2.68l-15.7-4.56c36.55-29.08,66.92-38.93,66.92-38.93S392.41,384,381.49,416.22Z" transform="translate(-39.81 -108.7)"/><path class="cls-10" d="M249.69,541.38a.12.12,0,0,1-.08,0,.14.14,0,0,1-.05-.19c11.62-19.18,48.19-65.94,76.83-101.78,31-38.84,59.68-73.6,60-73.94a.14.14,0,1,1,.21.18c-.28.34-28.93,35.09-60,73.93C298,475.4,261.41,522.15,249.8,541.31A.12.12,0,0,1,249.69,541.38Z" transform="translate(-39.81 -108.7)"/><path class="cls-11" d="M414.81,528.57,243.75,539.89,240,483.6a94.19,94.19,0,0,1,16.14-20.1c.72-.67,1.45-1.32,2.2-2l.73-.61c9.68-8.05,21.74-13.68,34.11-14.74a1.9,1.9,0,0,1,.58-.05,46.56,46.56,0,0,1,12.18.59,40.1,40.1,0,0,1,9.93,3.24l.45.19A42.77,42.77,0,0,1,332,463.21c.11.12.19.25.29.37a33.43,33.43,0,0,1,6.53,20.68c0,.49-.05,1-.07,1.49,0,.2,0,.43-.05.64-.48,6.6-1.7,14,3.22,18.11a9.23,9.23,0,0,0,1.84,1.2,4.34,4.34,0,0,0,.5.2,14.22,14.22,0,0,0,8.9.36c3.82-.94,7.32-2.9,11-4.27a39,39,0,0,1,22.92-1.1c.23,0,.44.1.67.16a38,38,0,0,1,12.4,5.84,36.64,36.64,0,0,1,6.49,6,2.49,2.49,0,0,1,.3.38A39.22,39.22,0,0,1,414.81,528.57Z" transform="translate(-39.81 -108.7)"/><path class="cls-10" d="M259.06,460.92a318.06,318.06,0,0,0-16.39,62.78l-.14-2.09a319,319,0,0,1,15.8-60.08Z" transform="translate(-39.81 -108.7)"/><path class="cls-10" d="M293.75,446.13a529.28,529.28,0,0,0-46.88,93.56l-.52,0a529.51,529.51,0,0,1,46.82-93.54A1.9,1.9,0,0,1,293.75,446.13Z" transform="translate(-39.81 -108.7)"/><path class="cls-10" d="M316.31,450.15c-23,26.49-47,56.53-67.27,89.39l-.54,0c20.26-33,44.37-63.07,67.36-89.62Z" transform="translate(-39.81 -108.7)"/><path class="cls-10" d="M332.29,463.58a810.28,810.28,0,0,0-71.56,75.19l-.65,0A811.06,811.06,0,0,1,332,463.21C332.11,463.33,332.19,463.46,332.29,463.58Z" transform="translate(-39.81 -108.7)"/><path class="cls-10" d="M338.75,485.75c0,.2,0,.43-.05.64-21,16.21-41.37,33.36-60.9,51.25l-.77.05C296.81,519.56,317.47,502.19,338.75,485.75Z" transform="translate(-39.81 -108.7)"/><path class="cls-10" d="M344.26,505.9Q321.85,520.63,300,536.17l-.88.06q22-15.66,44.62-30.53A4.34,4.34,0,0,0,344.26,505.9Z" transform="translate(-39.81 -108.7)"/><path class="cls-10" d="M387.78,501.05l-56.89,33.08-1.05.07,57.27-33.31C387.34,500.93,387.55,501,387.78,501.05Z" transform="translate(-39.81 -108.7)"/><path class="cls-10" d="M407,513.28q-20,8.93-39.82,18.45l-1.22.08q20.2-9.76,40.74-18.91A2.49,2.49,0,0,1,407,513.28Z" transform="translate(-39.81 -108.7)"/><path class="cls-12" d="M200.87,510c5,3.61,40.12,7,42.22,9.09q.91-11.06,2-22.1l.09-1c.43-4.44.87-8.86,1.35-13.29a6.43,6.43,0,0,1,.08-.78q1.44-13.83,3.11-27.62c0-.33.08-.67.13-1,.23-2.07.49-4.14.76-6.21,0-.38.08-.75.14-1.12q2.07-16.55,4.45-33c0-.3.08-.61.13-.93q.94-6.57,2-13.14,0-.37.12-.78,2.57-16.89,5.49-33.73c.08-.46.15-.91.24-1.37q1.44-8.36,3-16.68c.06-.37.12-.72.2-1.09q2.22-12.14,4.61-24.23l.27-1.29q3.79-19.18,8-38.29v0c.11-.5.21-1,.33-1.48q3.31-15,6.91-29.94c.17-.65.32-1.29.47-1.93q1.76-7.23,3.57-14.43c.07-.34.15-.68.25-1q2.36-9.42,4.82-18.82c.09-.36.19-.73.3-1.1.68-2.63,1.38-5.26,2.08-7.88.07-.27.14-.54.22-.81q3.25-12.11,6.68-24.17a4.84,4.84,0,0,1,.14-.51c0-.18.1-.35.16-.54s.05-.18.08-.28,0,0,0,0c.13-.51.28-1,.43-1.52a.64.64,0,0,1,.06-.18v0s0,0,0,0,0,0,0-.07l.09-.3a7.53,7.53,0,0,0-.46-1,5,5,0,0,0-1.13-1.41c-.07-.07-.16-.11-.23-.17a2.55,2.55,0,0,0-1.35-.44,3.18,3.18,0,0,0-.18.37,5.8,5.8,0,0,0-.27.62.11.11,0,0,0,0,.09c-.38.79-.75,1.6-1.1,2.41a2.6,2.6,0,0,0-.19.42c-.07.13-.13.27-.19.41a6.11,6.11,0,0,0-.32.74c-.19.38-.37.77-.53,1.16-1,2.16-1.93,4.3-2.86,6.47-.18.34-.32.68-.47,1-.67,1.5-1.33,3-2,4.55a6.07,6.07,0,0,0-.31.74c-2.12,4.83-4.18,9.7-6.2,14.56-.11.23-.21.47-.3.7q-2.14,5.1-4.23,10.26l-.2.49q-1.74,4.28-3.44,8.59-.21.48-.39,1-3.68,9.24-7.18,18.53c-.17.43-.33.87-.48,1.31q-5.6,14.79-10.79,29.72c-.12.34-.23.67-.35,1-1.3,3.72-2.56,7.44-3.81,11.16-.11.28-.21.57-.3.85q-7.44,22.11-14.13,44.46c-.09.28-.18.58-.25.88q-1.87,6.18-3.64,12.37c-.08.23-.14.46-.2.68q-2.94,10.26-5.75,20.53c-.07.3-.16.58-.23.88q-1.87,6.87-3.66,13.75c-.05.2-.1.4-.16.6q-3.63,14-7,28.06c-.06.22-.11.44-.17.67-.71,3-1.42,6-2.1,9a3.7,3.7,0,0,0-.14.55q-1.77,7.53-3.42,15.07c-.07.29-.13.59-.19.89q-3.37,15.24-6.41,30.52c0,.21-.09.44-.12.65C207.94,475.27,201.85,504.75,200.87,510Z" transform="translate(-39.81 -108.7)"/><g class="cls-13"><path class="cls-5" d="M302.48,173.68a2,2,0,0,1,1.33.36.44.44,0,0,1,.14.13,4.41,4.41,0,0,1,1.08,1.3,7.79,7.79,0,0,1,.47,1v0a.52.52,0,0,1,.06.13h0s0,0,0,.07a2.09,2.09,0,0,0,.08.23.64.64,0,0,1,.06-.18v0s0,0,0,0,0,0,0-.07l.09-.3a7.53,7.53,0,0,0-.46-1,5,5,0,0,0-1.13-1.41c-.07-.07-.16-.11-.23-.17a2.55,2.55,0,0,0-1.35-.44A3.18,3.18,0,0,0,302.48,173.68Z" transform="translate(-39.81 -108.7)"/></g><g class="cls-13"><path class="cls-5" d="M298,204.8c.07-.27.14-.54.22-.81-1.07-6.1-1.81-12.18-1.18-18-.18.34-.32.68-.47,1C296.06,192.79,296.88,198.8,298,204.8Z" transform="translate(-39.81 -108.7)"/></g><g class="cls-13"><path class="cls-5" d="M294.53,191.59a6.07,6.07,0,0,0-.31.74l1.35,21.45c.09-.36.19-.73.3-1.1Z" transform="translate(-39.81 -108.7)"/></g><g class="cls-13"><path class="cls-5" d="M287.72,207.59l2.78,26c.07-.34.15-.68.25-1L288,206.89C287.91,207.12,287.81,207.36,287.72,207.59Z" transform="translate(-39.81 -108.7)"/></g><g class="cls-13"><path class="cls-5" d="M283.29,218.34c3.34,10.1,3.78,21.12,3.17,31.64.17-.65.32-1.29.47-1.93.44-10.1-.16-20.57-3.44-30.2Z" transform="translate(-39.81 -108.7)"/></g><g class="cls-13"><path class="cls-5" d="M279.22,281.4c.11-.5.21-1,.33-1.48q-.57-26.52.3-53-.21.48-.39,1C278.88,245.72,278.81,263.58,279.22,281.4Z" transform="translate(-39.81 -108.7)"/></g><g class="cls-13"><path class="cls-5" d="M270.91,321l.27-1.29a419.9,419.9,0,0,1,1.1-73.26c-.17.43-.33.87-.48,1.31A419.65,419.65,0,0,0,270.91,321Z" transform="translate(-39.81 -108.7)"/></g><g class="cls-13"><path class="cls-5" d="M260.66,278.47a555.84,555.84,0,0,0,5.44,67.85c.06-.37.12-.72.2-1.09A556.18,556.18,0,0,1,261,277.48C260.89,277.82,260.78,278.15,260.66,278.47Z" transform="translate(-39.81 -108.7)"/></g><g class="cls-13"><path class="cls-5" d="M256.55,290.48l6.34,73.89c.08-.46.15-.91.24-1.37l-6.28-73.37C256.74,289.91,256.64,290.2,256.55,290.48Z" transform="translate(-39.81 -108.7)"/></g><g class="cls-13"><path class="cls-5" d="M243.66,346.65c3,18,8.16,35.66,13.62,52.23q0-.37.12-.78C252,381.74,247,364.3,244,346.58q-1-5.91-1.6-11.64c-.09.28-.18.58-.25.88C242.55,339.39,243.05,343,243.66,346.65Z" transform="translate(-39.81 -108.7)"/></g><g class="cls-13"><path class="cls-5" d="M238.33,348.87,255.19,413c0-.3.08-.61.13-.93l-16.79-63.83C238.45,348.42,238.39,348.65,238.33,348.87Z" transform="translate(-39.81 -108.7)"/></g><g class="cls-13"><path class="cls-5" d="M242.32,413.85c3,10.9,6.09,22,8.28,33.25,0-.38.08-.75.14-1.12-2.18-10.9-5.15-21.66-8.08-32.23-1.06-3.88-2.18-7.89-3.23-11.84a262.71,262.71,0,0,1-6.85-32.51c-.07.3-.16.58-.23.88A262.13,262.13,0,0,0,239.09,402C240.13,406,241.25,410,242.32,413.85Z" transform="translate(-39.81 -108.7)"/></g><g class="cls-13"><path class="cls-5" d="M228.53,384.63a504.43,504.43,0,0,1,21.18,69.67c0-.33.08-.67.13-1A506,506,0,0,0,228.69,384C228.64,384.23,228.59,384.43,228.53,384.63Z" transform="translate(-39.81 -108.7)"/></g><g class="cls-13"><path class="cls-5" d="M238.73,461.84c2.58,6.84,5.21,13.84,7.79,20.86a6.43,6.43,0,0,1,.08-.78c-2.5-6.79-5-13.57-7.54-20.2-6-16-12.2-32.4-17.52-49-.06.22-.11.44-.17.67C226.66,429.81,232.75,446,238.73,461.84Z" transform="translate(-39.81 -108.7)"/></g><g class="cls-13"><path class="cls-5" d="M219.13,422.91c11.31,23.7,19,49,26,74.06l.09-1c-6.92-24.94-14.62-50.08-25.9-73.63A3.7,3.7,0,0,0,219.13,422.91Z" transform="translate(-39.81 -108.7)"/></g><g class="cls-13"><path class="cls-5" d="M215.52,438.87c2.58,13.76,7,27.26,11.31,40.51,3.55,10.87,7.21,22,9.83,33.32l.48.48c-2.64-11.5-6.34-22.86-10-33.91-4.41-13.49-8.91-27.27-11.46-41.29C215.64,438.27,215.58,438.57,215.52,438.87Z" transform="translate(-39.81 -108.7)"/></g><g class="cls-13"><path class="cls-5" d="M209,470,219,496l.58.5-10.46-27.09C209.07,469.6,209,469.83,209,470Z" transform="translate(-39.81 -108.7)"/></g><path class="cls-14" d="M315.75,178.79c3.56-2.95,10.5-7.37,21.85-9.54,0,0-8.83,4.79-13.73,9.91,9.63.51,21.22,1.33,33.05,2.66,2.25-1.52,4.79-3.22,5.26-3.44,3-1.47,7.07-3.24,10.38-3.06a43.08,43.08,0,0,0-9.07,7.3c2.64.35,5.28.72,7.9,1.12a65.85,65.85,0,0,1,19.25,6.38l16-3.63-10.77,6.43c23.57,13.55,41.94,36.5,41.94,36.5s2-47.47-49-70.13-89.27,19.07-89.27,19.07S305.9,178.4,315.75,178.79Z" transform="translate(-39.81 -108.7)"/><path class="cls-15" d="M437.27,231.24a87.47,87.47,0,0,0-7.08-26.44A81.83,81.83,0,0,0,416,182.61a74.85,74.85,0,0,0-26.09-18.55,82.15,82.15,0,0,0-31.3-6.84,85,85,0,0,0-25.67,3.56,84,84,0,0,0-23.76,11.05l-.12-.17a84.26,84.26,0,0,1,23.81-11.07A85.7,85.7,0,0,1,358,157h.61A82.57,82.57,0,0,1,390,163.87a75.33,75.33,0,0,1,26.17,18.6,82.15,82.15,0,0,1,14.25,22.26,88.16,88.16,0,0,1,7.1,26.49Z" transform="translate(-39.81 -108.7)"/><path class="cls-9" d="M315.36,183.55c4.38-1.51,12.43-3.23,23.83-1.3,0,0-10,1.4-16.35,4.48,8.84,3.85,19.4,8.66,30,14,2.65-.63,5.62-1.34,6.14-1.39,3.35-.31,7.76-.56,10.79.76a43.31,43.31,0,0,0-11.06,3.67q3.52,1.88,7,3.81a65.72,65.72,0,0,1,15.78,12.7l16.23,2.18-12.34,2.25c17.3,20.93,26.42,48.83,26.42,48.83s18.6-43.74-21.18-82.78-90.32-13.31-90.32-13.31S306.27,179.74,315.36,183.55Z" transform="translate(-39.81 -108.7)"/><path class="cls-15" d="M411.52,275.43l-.2-.06A87.59,87.59,0,0,0,414,248.14a81.57,81.57,0,0,0-5.5-25.75,74.63,74.63,0,0,0-17.9-26.49,82.3,82.3,0,0,0-26.9-17.34,85.43,85.43,0,0,0-25.3-5.62,84.36,84.36,0,0,0-26.14,2l-.06-.2a84.67,84.67,0,0,1,26.2-2.05,85.84,85.84,0,0,1,25.37,5.64,82.32,82.32,0,0,1,27,17.39,74.77,74.77,0,0,1,17.95,26.55,81.85,81.85,0,0,1,5.52,25.82A87.83,87.83,0,0,1,411.52,275.43Z" transform="translate(-39.81 -108.7)"/><path class="cls-11" d="M301.83,176.6l.12.13,1.5,1.6.09.09c.08.1.2.21.31.33l.17.18c.25.28.54.58.83.89.56.59,1.18,1.27,1.86,2h0l.45.49c1.59,1.74,3.48,3.82,5.6,6.21,4.6.51,12.59,2.44,22,9.07-.56-.16-9.78-3-16.66-3,6.29,7.27,13.73,16.16,21,25.58,2.67.57,5.65,1.21,6.15,1.39,3.15,1.15,7.23,2.83,9.4,5.33a43.48,43.48,0,0,0-11.57-1.45q2.37,3.21,4.65,6.44a65.08,65.08,0,0,1,8.72,18.26l13.7,8.95L358,255.86c6.5,26.31,2.62,55.42,2.62,55.42a53.54,53.54,0,0,0,5.44-5.9c9.2-11.41,25.52-38.82,11.41-77.87a76.79,76.79,0,0,0-9.72-18.69,67.08,67.08,0,0,0-5.36-6.63c-.91-1-1.83-1.95-2.78-2.86a76.2,76.2,0,0,0-25.28-16.2c-1.61-.64-3.2-1.23-4.76-1.74a93.27,93.27,0,0,0-12.94-3.32c-3.06-.57-5.81-.92-8.06-1.13l-1.85-.16-.77-.05h-.1a.34.34,0,0,0-.14,0h-.14c-1.62-.1-2.76-.11-3.33-.12Z" transform="translate(-39.81 -108.7)"/><path class="cls-15" d="M360.32,313.16l-.16-.14a87.75,87.75,0,0,0,14.23-23.41A81.34,81.34,0,0,0,380.61,264,74.23,74.23,0,0,0,376,232.44a81.67,81.67,0,0,0-16.73-27.23,87.86,87.86,0,0,0-44.82-25.39l0-.2a88.11,88.11,0,0,1,44.94,25.45,81.82,81.82,0,0,1,16.77,27.3A74.48,74.48,0,0,1,380.82,264a81.84,81.84,0,0,1-6.24,25.66A88.69,88.69,0,0,1,360.32,313.16Z" transform="translate(-39.81 -108.7)"/><path class="cls-14" d="M295.57,169.76c-1.11-4.48-4.07-12.13-11.92-20.59,0,0,4.27,9.08,5.16,16.09-8.06-5.27-17.88-11.45-28.2-17.37-.91-2.55-1.94-5.41-2.19-5.88-1.56-3-3.76-6.78-6.53-8.58a42.41,42.41,0,0,1,3,11.23q-3.5-1.92-7-3.77a65.93,65.93,0,0,0-19.31-6.22l-10.69-12.35,4.84,11.53c-27-3-55.49,4.63-55.49,4.63s26.62-39.42,81.18-27.56S308.89,179,308.89,179,303.74,175.27,295.57,169.76Z" transform="translate(-39.81 -108.7)"/><path class="cls-15" d="M305.39,168.17a83.92,83.92,0,0,0-12.56-22.93,85.17,85.17,0,0,0-18.56-18,82.25,82.25,0,0,0-29.28-13,75.36,75.36,0,0,0-32.05-.47,82.15,82.15,0,0,0-24.65,9.49,88.38,88.38,0,0,0-21.45,17.1l-.15-.13a88.38,88.38,0,0,1,21.49-17.15,82.47,82.47,0,0,1,24.72-9.5A75.46,75.46,0,0,1,245,114a82.48,82.48,0,0,1,29.35,13A84.87,84.87,0,0,1,293,145.12a83.52,83.52,0,0,1,12.59,23Z" transform="translate(-39.81 -108.7)"/><path class="cls-9" d="M292.65,175.64c-2.62-3.8-8.09-9.94-18.41-15.12,0,0,7.19,7,10.49,13.27-9.41-2.12-20.77-4.48-32.53-6.42-1.74-2.07-3.72-4.4-4.11-4.74-2.51-2.23-5.92-5-9.15-5.76a42.48,42.48,0,0,1,6.73,9.49q-3.94-.59-7.91-1.08a66.17,66.17,0,0,0-20.27.91l-14.36-7.82,8.59,9.1c-26.38,6.63-50.34,23.72-50.34,23.72S172.44,145,227.71,137s80.66,42.61,80.66,42.61S302.24,177.94,292.65,175.64Z" transform="translate(-39.81 -108.7)"/><path class="cls-15" d="M161.48,191.22l-.2-.07a88.92,88.92,0,0,1,14.09-23.56,82.24,82.24,0,0,1,19.81-17.53,75.38,75.38,0,0,1,30.26-10.79,82.54,82.54,0,0,1,32.07,1.93,85.24,85.24,0,0,1,23.79,10.43,84,84,0,0,1,19.88,17.13l-.16.12a84,84,0,0,0-19.84-17.08,85.2,85.2,0,0,0-23.72-10.41,82.5,82.5,0,0,0-32-1.92,75.33,75.33,0,0,0-30.18,10.76,82,82,0,0,0-19.75,17.49A88,88,0,0,0,161.48,191.22Z" transform="translate(-39.81 -108.7)"/><path class="cls-11" d="M291.77,181.2c-4-2.3-11.6-5.48-23.16-5.7,0,0,9.53,3.22,15.22,7.44-9.4,2.14-20.67,4.91-32.11,8.23-2.48-1.12-5.27-2.37-5.77-2.51-3.23-.93-7.52-2-10.75-1.25a43.49,43.49,0,0,1,10.19,5.65q-3.82,1.19-7.6,2.44a65.57,65.57,0,0,0-17.88,9.56l-16.35-.87,11.7,4.5c-20.91,17.35-35.09,43.07-35.09,43.07s-10.09-46.43,36.29-77.4S307.68,178,307.68,178,301.42,179.14,291.77,181.2Z" transform="translate(-39.81 -108.7)"/><path class="cls-15" d="M180.07,251.78a88.22,88.22,0,0,1,2.47-27.32,82,82,0,0,1,10.24-24.34,75.07,75.07,0,0,1,22.61-22.77,82.29,82.29,0,0,1,29.75-12.07,85.39,85.39,0,0,1,26-.84,84.3,84.3,0,0,1,25.36,6.88l-.1.18a84.12,84.12,0,0,0-25.3-6.86,85.28,85.28,0,0,0-25.91.84,82.36,82.36,0,0,0-29.67,12A75,75,0,0,0,193,200.22a81.8,81.8,0,0,0-10.22,24.28,88.16,88.16,0,0,0-2.47,27.25Z" transform="translate(-39.81 -108.7)"/></g></g></g></svg>